<mxfile modified="2023-10-19T12:47:20.549Z" host="Electron" agent="Mozilla/5.0 (Windows NT 10.0; Win64; x64) AppleWebKit/537.36 (KHTML, like Gecko) draw.io/21.1.2 Chrome/106.0.5249.199 Electron/21.4.3 Safari/537.36" etag="k_N7CChQ2xQMCaLntwlr" version="21.1.2" type="device">
  <diagram id="l2aKFoh6-Bn0gOPZ2l0T" name="Page-1">
    <mxGraphModel dx="1727" dy="1010" grid="1" gridSize="10" guides="1" tooltips="1" connect="1" arrows="1" fold="1" page="1" pageScale="1" pageWidth="1169" pageHeight="827" math="0" shadow="0">
      <root>
        <mxCell id="0" />
        <mxCell id="1" parent="0" />
        <mxCell id="-0zOLr0NPZMOJFrjvncc-1" value="" style="shape=image;verticalLabelPosition=bottom;labelBackgroundColor=default;verticalAlign=top;aspect=fixed;imageAspect=0;image=https://tech.scargill.net/wp-content/uploads/2019/10/image-4.png;" vertex="1" parent="1">
          <mxGeometry x="150" y="121" width="435" height="180" as="geometry" />
        </mxCell>
        <mxCell id="-0zOLr0NPZMOJFrjvncc-2" value="" style="shape=image;verticalLabelPosition=bottom;labelBackgroundColor=default;verticalAlign=top;aspect=fixed;imageAspect=0;image=https://tech.scargill.net/wp-content/uploads/2019/10/image-4.png;" vertex="1" parent="1">
          <mxGeometry x="150" y="281" width="435" height="180" as="geometry" />
        </mxCell>
        <mxCell id="-0zOLr0NPZMOJFrjvncc-15" style="edgeStyle=orthogonalEdgeStyle;rounded=0;orthogonalLoop=1;jettySize=auto;html=1;exitX=1;exitY=0.5;exitDx=0;exitDy=0;entryX=0;entryY=0.5;entryDx=0;entryDy=0;strokeColor=#0000FF;strokeWidth=5;" edge="1" parent="1" source="-0zOLr0NPZMOJFrjvncc-3" target="-0zOLr0NPZMOJFrjvncc-14">
          <mxGeometry relative="1" as="geometry" />
        </mxCell>
        <mxCell id="-0zOLr0NPZMOJFrjvncc-19" value="" style="edgeStyle=orthogonalEdgeStyle;rounded=0;orthogonalLoop=1;jettySize=auto;html=1;strokeWidth=5;strokeColor=#0000FF;" edge="1" parent="1" source="-0zOLr0NPZMOJFrjvncc-3" target="-0zOLr0NPZMOJFrjvncc-17">
          <mxGeometry relative="1" as="geometry" />
        </mxCell>
        <mxCell id="-0zOLr0NPZMOJFrjvncc-3" value="" style="shape=image;verticalLabelPosition=bottom;labelBackgroundColor=default;verticalAlign=top;aspect=fixed;imageAspect=0;image=https://www.wpiinc.com/pub/media/catalog/product/cache/c5cab46534251dd3ec946f952ed10bac/1/3/13854.jpg;" vertex="1" parent="1">
          <mxGeometry y="347.21" width="110" height="109.58" as="geometry" />
        </mxCell>
        <mxCell id="-0zOLr0NPZMOJFrjvncc-4" value="" style="shape=image;verticalLabelPosition=bottom;labelBackgroundColor=default;verticalAlign=top;aspect=fixed;imageAspect=0;image=https://tech.scargill.net/wp-content/uploads/2019/10/image-4.png;" vertex="1" parent="1">
          <mxGeometry x="150" y="455" width="435" height="180" as="geometry" />
        </mxCell>
        <mxCell id="-0zOLr0NPZMOJFrjvncc-5" value="" style="shape=image;verticalLabelPosition=bottom;labelBackgroundColor=default;verticalAlign=top;aspect=fixed;imageAspect=0;image=https://tech.scargill.net/wp-content/uploads/2019/10/image-4.png;" vertex="1" parent="1">
          <mxGeometry x="150" y="621" width="435" height="180" as="geometry" />
        </mxCell>
        <mxCell id="-0zOLr0NPZMOJFrjvncc-6" value="&lt;font style=&quot;font-size: 36px;&quot;&gt;1 (Master)&lt;/font&gt;" style="text;strokeColor=none;align=center;fillColor=none;html=1;verticalAlign=middle;whiteSpace=wrap;rounded=0;" vertex="1" parent="1">
          <mxGeometry x="180" y="151" width="170" height="30" as="geometry" />
        </mxCell>
        <mxCell id="-0zOLr0NPZMOJFrjvncc-7" value="&lt;font style=&quot;font-size: 36px;&quot;&gt;2 (Slave)&lt;/font&gt;" style="text;strokeColor=none;align=center;fillColor=none;html=1;verticalAlign=middle;whiteSpace=wrap;rounded=0;" vertex="1" parent="1">
          <mxGeometry x="175" y="311" width="170" height="30" as="geometry" />
        </mxCell>
        <mxCell id="-0zOLr0NPZMOJFrjvncc-8" value="&lt;font style=&quot;font-size: 36px;&quot;&gt;n-1 (Slave)&lt;/font&gt;" style="text;strokeColor=none;align=center;fillColor=none;html=1;verticalAlign=middle;whiteSpace=wrap;rounded=0;" vertex="1" parent="1">
          <mxGeometry x="175" y="481" width="195" height="30" as="geometry" />
        </mxCell>
        <mxCell id="-0zOLr0NPZMOJFrjvncc-9" value="&lt;font style=&quot;font-size: 36px;&quot;&gt;n (Slave)&lt;/font&gt;" style="text;strokeColor=none;align=center;fillColor=none;html=1;verticalAlign=middle;whiteSpace=wrap;rounded=0;" vertex="1" parent="1">
          <mxGeometry x="175" y="651" width="170" height="30" as="geometry" />
        </mxCell>
        <mxCell id="-0zOLr0NPZMOJFrjvncc-13" style="edgeStyle=orthogonalEdgeStyle;rounded=0;orthogonalLoop=1;jettySize=auto;html=1;exitX=0;exitY=0.5;exitDx=0;exitDy=0;fillColor=#f8cecc;strokeColor=#0000FF;strokeWidth=5;" edge="1" parent="1" source="-0zOLr0NPZMOJFrjvncc-12" target="-0zOLr0NPZMOJFrjvncc-3">
          <mxGeometry relative="1" as="geometry" />
        </mxCell>
        <mxCell id="-0zOLr0NPZMOJFrjvncc-25" value="&lt;font color=&quot;#0000ff&quot; style=&quot;font-size: 21px;&quot;&gt;&lt;b&gt;SYNC&lt;/b&gt;&lt;/font&gt;" style="edgeLabel;html=1;align=center;verticalAlign=middle;resizable=0;points=[];" vertex="1" connectable="0" parent="-0zOLr0NPZMOJFrjvncc-13">
          <mxGeometry x="-0.2451" y="-4" relative="1" as="geometry">
            <mxPoint y="-17" as="offset" />
          </mxGeometry>
        </mxCell>
        <mxCell id="-0zOLr0NPZMOJFrjvncc-12" value="" style="ellipse;whiteSpace=wrap;html=1;fillColor=none;strokeColor=#00FF00;strokeWidth=5;" vertex="1" parent="1">
          <mxGeometry x="201" y="227" width="30" height="30" as="geometry" />
        </mxCell>
        <mxCell id="-0zOLr0NPZMOJFrjvncc-14" value="" style="ellipse;whiteSpace=wrap;html=1;fillColor=none;strokeColor=#0000FF;strokeWidth=5;" vertex="1" parent="1">
          <mxGeometry x="238" y="387" width="30" height="30" as="geometry" />
        </mxCell>
        <mxCell id="-0zOLr0NPZMOJFrjvncc-16" style="edgeStyle=orthogonalEdgeStyle;rounded=0;orthogonalLoop=1;jettySize=auto;html=1;exitX=1;exitY=0.5;exitDx=0;exitDy=0;entryX=0;entryY=0.5;entryDx=0;entryDy=0;strokeColor=#0000FF;strokeWidth=5;" edge="1" parent="1" source="-0zOLr0NPZMOJFrjvncc-17" target="-0zOLr0NPZMOJFrjvncc-18">
          <mxGeometry relative="1" as="geometry" />
        </mxCell>
        <mxCell id="-0zOLr0NPZMOJFrjvncc-17" value="" style="shape=image;verticalLabelPosition=bottom;labelBackgroundColor=default;verticalAlign=top;aspect=fixed;imageAspect=0;image=https://www.wpiinc.com/pub/media/catalog/product/cache/c5cab46534251dd3ec946f952ed10bac/1/3/13854.jpg;" vertex="1" parent="1">
          <mxGeometry y="521.4200000000001" width="110" height="109.58" as="geometry" />
        </mxCell>
        <mxCell id="-0zOLr0NPZMOJFrjvncc-18" value="" style="ellipse;whiteSpace=wrap;html=1;fillColor=none;strokeColor=#0000FF;strokeWidth=5;" vertex="1" parent="1">
          <mxGeometry x="238" y="561.21" width="30" height="30" as="geometry" />
        </mxCell>
        <mxCell id="-0zOLr0NPZMOJFrjvncc-20" style="edgeStyle=orthogonalEdgeStyle;rounded=0;orthogonalLoop=1;jettySize=auto;html=1;exitX=0.5;exitY=1;exitDx=0;exitDy=0;entryX=0;entryY=0.5;entryDx=0;entryDy=0;strokeColor=#0000FF;strokeWidth=5;" edge="1" parent="1" target="-0zOLr0NPZMOJFrjvncc-21" source="-0zOLr0NPZMOJFrjvncc-17">
          <mxGeometry relative="1" as="geometry">
            <mxPoint x="110" y="741.79" as="sourcePoint" />
          </mxGeometry>
        </mxCell>
        <mxCell id="-0zOLr0NPZMOJFrjvncc-21" value="" style="ellipse;whiteSpace=wrap;html=1;fillColor=none;strokeColor=#0000FF;strokeWidth=5;" vertex="1" parent="1">
          <mxGeometry x="238" y="727" width="30" height="30" as="geometry" />
        </mxCell>
        <mxCell id="-0zOLr0NPZMOJFrjvncc-24" value="" style="rounded=0;whiteSpace=wrap;html=1;strokeWidth=5;fillColor=none;strokeColor=#ff0000;" vertex="1" parent="1">
          <mxGeometry x="320" y="232" width="27" height="29" as="geometry" />
        </mxCell>
        <mxCell id="-0zOLr0NPZMOJFrjvncc-26" value="" style="rounded=0;whiteSpace=wrap;html=1;strokeWidth=5;fillColor=none;strokeColor=#ff0000;" vertex="1" parent="1">
          <mxGeometry x="318" y="391" width="27" height="29" as="geometry" />
        </mxCell>
        <mxCell id="-0zOLr0NPZMOJFrjvncc-27" value="" style="rounded=0;whiteSpace=wrap;html=1;strokeWidth=5;fillColor=none;strokeColor=#ff0000;" vertex="1" parent="1">
          <mxGeometry x="319" y="566" width="27" height="29" as="geometry" />
        </mxCell>
        <mxCell id="-0zOLr0NPZMOJFrjvncc-28" value="" style="rounded=0;whiteSpace=wrap;html=1;strokeWidth=5;fillColor=none;strokeColor=#ff0000;" vertex="1" parent="1">
          <mxGeometry x="319" y="732" width="27" height="29" as="geometry" />
        </mxCell>
        <mxCell id="-0zOLr0NPZMOJFrjvncc-34" value="" style="edgeStyle=orthogonalEdgeStyle;rounded=0;orthogonalLoop=1;jettySize=auto;html=1;strokeWidth=11;strokeColor=#FF0000;" edge="1" parent="1" source="-0zOLr0NPZMOJFrjvncc-31" target="-0zOLr0NPZMOJFrjvncc-33">
          <mxGeometry relative="1" as="geometry" />
        </mxCell>
        <mxCell id="-0zOLr0NPZMOJFrjvncc-31" value="" style="shape=image;verticalLabelPosition=bottom;labelBackgroundColor=default;verticalAlign=top;aspect=fixed;imageAspect=0;image=https://hi-tech.md/images/detailed/186/usb-30-hub-with-4-usb-a-ports-additional-usb-c-pow.jpg;fontSize=24;" vertex="1" parent="1">
          <mxGeometry x="793.8" y="494" width="279" height="279" as="geometry" />
        </mxCell>
        <mxCell id="-0zOLr0NPZMOJFrjvncc-33" value="" style="shape=image;verticalLabelPosition=top;labelBackgroundColor=default;verticalAlign=bottom;aspect=fixed;imageAspect=0;image=https://www.simplicityai.com/wp-content/uploads/2014/12/labview-block-diagram.jpg;fontSize=24;spacing=2;spacingLeft=0;labelPosition=center;align=center;" vertex="1" parent="1">
          <mxGeometry x="728" y="130" width="410.61" height="274" as="geometry" />
        </mxCell>
        <mxCell id="-0zOLr0NPZMOJFrjvncc-41" value="&lt;font style=&quot;font-size: 36px;&quot;&gt;USB Hub&lt;/font&gt;" style="text;strokeColor=none;align=center;fillColor=none;html=1;verticalAlign=middle;whiteSpace=wrap;rounded=0;" vertex="1" parent="1">
          <mxGeometry x="793.8" y="743" width="170" height="30" as="geometry" />
        </mxCell>
        <mxCell id="-0zOLr0NPZMOJFrjvncc-42" value="&lt;font style=&quot;font-size: 36px;&quot;&gt;PC&lt;/font&gt;" style="text;strokeColor=none;align=center;fillColor=none;html=1;verticalAlign=middle;whiteSpace=wrap;rounded=0;" vertex="1" parent="1">
          <mxGeometry x="720" y="357.79" width="170" height="30" as="geometry" />
        </mxCell>
        <mxCell id="-0zOLr0NPZMOJFrjvncc-43" style="edgeStyle=orthogonalEdgeStyle;rounded=0;orthogonalLoop=1;jettySize=auto;html=1;exitX=0.5;exitY=1;exitDx=0;exitDy=0;strokeWidth=5;strokeColor=#FF0000;" edge="1" parent="1" source="-0zOLr0NPZMOJFrjvncc-24" target="-0zOLr0NPZMOJFrjvncc-31">
          <mxGeometry relative="1" as="geometry">
            <Array as="points">
              <mxPoint x="334" y="291" />
              <mxPoint x="680" y="291" />
              <mxPoint x="680" y="591" />
            </Array>
          </mxGeometry>
        </mxCell>
        <mxCell id="-0zOLr0NPZMOJFrjvncc-44" style="edgeStyle=orthogonalEdgeStyle;rounded=0;orthogonalLoop=1;jettySize=auto;html=1;exitX=0.5;exitY=1;exitDx=0;exitDy=0;strokeWidth=5;strokeColor=#FF0000;" edge="1" parent="1" source="-0zOLr0NPZMOJFrjvncc-26" target="-0zOLr0NPZMOJFrjvncc-31">
          <mxGeometry relative="1" as="geometry">
            <Array as="points">
              <mxPoint x="332" y="451" />
              <mxPoint x="660" y="451" />
              <mxPoint x="660" y="627" />
            </Array>
          </mxGeometry>
        </mxCell>
        <mxCell id="-0zOLr0NPZMOJFrjvncc-45" style="edgeStyle=orthogonalEdgeStyle;rounded=0;orthogonalLoop=1;jettySize=auto;html=1;strokeWidth=5;strokeColor=#FF0000;exitX=0.5;exitY=1;exitDx=0;exitDy=0;" edge="1" parent="1" source="-0zOLr0NPZMOJFrjvncc-27" target="-0zOLr0NPZMOJFrjvncc-31">
          <mxGeometry relative="1" as="geometry">
            <mxPoint x="740" y="401" as="sourcePoint" />
            <Array as="points">
              <mxPoint x="333" y="615" />
              <mxPoint x="640" y="615" />
              <mxPoint x="640" y="671" />
            </Array>
          </mxGeometry>
        </mxCell>
        <mxCell id="-0zOLr0NPZMOJFrjvncc-46" style="edgeStyle=orthogonalEdgeStyle;rounded=0;orthogonalLoop=1;jettySize=auto;html=1;exitX=0.5;exitY=1;exitDx=0;exitDy=0;strokeWidth=5;strokeColor=#FF0000;" edge="1" parent="1" source="-0zOLr0NPZMOJFrjvncc-28" target="-0zOLr0NPZMOJFrjvncc-31">
          <mxGeometry relative="1" as="geometry">
            <Array as="points">
              <mxPoint x="333" y="781" />
              <mxPoint x="640" y="781" />
              <mxPoint x="640" y="711" />
            </Array>
          </mxGeometry>
        </mxCell>
      </root>
    </mxGraphModel>
  </diagram>
</mxfile>
